<?xml version="1.0" encoding="UTF-8" standalone="no"?>
<!DOCTYPE svg PUBLIC "-//W3C//DTD SVG 1.1//EN" "http://www.w3.org/Graphics/SVG/1.1/DTD/svg11.dtd">
<svg width="100%" height="100%" viewBox="0 0 800 800" version="1.1" xmlns="http://www.w3.org/2000/svg" xmlns:xlink="http://www.w3.org/1999/xlink" xml:space="preserve" xmlns:serif="http://www.serif.com/" style="fill-rule:evenodd;clip-rule:evenodd;stroke-linecap:round;stroke-linejoin:round;stroke-miterlimit:2;">
    <g id="Icon">
        <path d="M115.482,115.482C66.667,164.298 66.667,242.865 66.667,400C66.667,557.133 66.667,635.703 115.482,684.517C164.298,733.333 242.865,733.333 400,733.333C557.133,733.333 635.703,733.333 684.517,684.517C733.333,635.703 733.333,557.133 733.333,400C733.333,242.865 733.333,164.298 684.517,115.482C635.703,66.667 557.133,66.667 400,66.667C242.865,66.667 164.298,66.667 115.482,115.482Z"/>
        <g transform="matrix(1.55413,0,0,1.55413,42.8158,442.897)">
            <path d="M117.869,-52.825L117.869,19.756C117.869,24.903 118.899,28.464 120.958,30.437C123.017,32.41 125.934,33.397 129.709,33.397C132.969,33.397 136.4,32.539 140.004,30.823C143.607,29.107 146.438,26.962 148.497,24.389C150.213,25.761 151.457,27.82 152.229,30.566C153.001,33.311 153.387,35.799 153.387,38.03C153.387,41.976 152.015,45.837 149.269,49.612C146.524,53.387 142.406,56.475 136.915,58.877C131.424,61.28 124.818,62.481 117.097,62.481C105.086,62.481 95.434,59.049 88.142,52.186C80.85,45.322 77.203,33.912 77.203,17.954L77.203,-52.825L60.989,-52.825L60.989,-68.525C65.45,-69.211 69.782,-72.085 73.986,-77.147C78.19,-82.209 81.793,-88.558 84.796,-96.193C87.799,-103.829 89.729,-111.421 90.587,-118.971C93.676,-119.486 96.507,-119.743 99.081,-119.743C105.258,-119.743 109.848,-117.985 112.85,-114.467C115.853,-110.949 117.354,-107.046 117.354,-102.756L117.354,-75.732L147.21,-75.732C147.21,-70.584 146.953,-66.166 146.438,-62.477C145.923,-58.787 144.808,-55.57 143.092,-52.825L117.869,-52.825Z" style="fill:white;fill-rule:nonzero;stroke:black;stroke-width:0.54px;"/>
            <path d="M237.808,34.426C248.617,34.426 258.655,30.995 267.921,24.131C269.293,25.504 270.495,27.563 271.524,30.308C272.554,33.054 273.068,35.456 273.068,37.515C273.068,40.604 271.009,44.164 266.891,48.196C262.773,52.228 257.068,55.703 249.776,58.62C242.483,61.537 234.29,62.995 225.196,62.995C212.499,62.995 201.388,60.25 191.865,54.759C182.342,49.269 175.007,41.29 169.86,30.823C164.712,20.356 162.138,8.002 162.138,-6.239C162.138,-20.824 164.927,-33.607 170.503,-44.589C176.08,-55.57 183.758,-64.021 193.538,-69.941C203.319,-75.86 214.386,-78.82 226.74,-78.82C242.355,-78.82 254.794,-74.273 264.06,-65.179C273.326,-56.085 277.959,-43.473 277.959,-27.344C277.959,-19.795 276.757,-13.832 274.355,-9.457C271.953,-5.081 267.663,-2.893 261.486,-2.893L205.893,-2.893C206.922,21.986 217.56,34.426 237.808,34.426ZM225.196,-61.061C219.877,-61.061 215.416,-58.101 211.812,-52.181C208.209,-46.262 206.236,-36.353 205.893,-22.454L231.888,-22.454C234.633,-22.454 236.435,-23.398 237.293,-25.285C238.151,-27.173 238.58,-30.09 238.58,-34.036C238.58,-44.16 237.379,-51.195 234.976,-55.141C232.574,-59.088 229.314,-61.061 225.196,-61.061Z" style="fill:white;fill-rule:nonzero;stroke:black;stroke-width:0.54px;"/>
            <path d="M393.264,27.992C394.637,29.536 395.795,31.595 396.739,34.169C397.682,36.743 398.154,38.973 398.154,40.861C398.154,44.636 396.181,48.325 392.235,51.928C388.288,55.531 383.012,58.534 376.406,60.936C369.8,63.339 362.636,64.54 354.915,64.54C342.389,64.54 331.322,61.709 321.713,56.046C312.104,50.384 304.64,42.234 299.321,31.595C294.002,20.957 291.342,8.345 291.342,-6.239C291.342,-21.167 294.216,-34.122 299.964,-45.104C305.713,-56.085 313.691,-64.493 323.901,-70.327C334.11,-76.161 345.563,-79.077 358.261,-79.077C370.958,-79.077 380.867,-76.032 387.988,-69.941C395.109,-63.849 398.669,-56.085 398.669,-46.648C398.669,-38.583 396.61,-32.277 392.492,-27.73C388.374,-23.183 383.055,-20.91 376.535,-20.91C371.215,-20.91 366.754,-22.883 363.151,-26.83C359.548,-30.776 357.746,-35.581 357.746,-41.243C357.746,-45.018 358.432,-48.192 359.805,-50.766C361.178,-53.34 363.065,-55.656 365.467,-57.715C362.722,-59.259 360.234,-60.031 358.003,-60.031C352.169,-60.031 347.022,-56.557 342.561,-49.608C338.099,-42.658 335.869,-31.205 335.869,-15.248C335.869,2.94 338.528,16.024 343.847,24.003C349.167,31.981 356.974,35.971 367.269,35.971C372.073,35.971 376.835,35.284 381.553,33.912C386.272,32.539 390.176,30.566 393.264,27.992Z" style="fill:white;fill-rule:nonzero;stroke:black;stroke-width:0.54px;"/>
        </g>
    </g>
</svg>
